<svg width="18" height="16" viewBox="0 0 18 16" fill="none" xmlns="http://www.w3.org/2000/svg">
<path d="M1.5 3.00124V11.9991C1.5 12.9323 1.5 13.3986 1.68161 13.755C1.84136 14.0686 2.09609 14.324 2.40962 14.4837C2.7657 14.6652 3.23209 14.6652 4.16346 14.6652H13.833C14.7644 14.6652 15.2301 14.6652 15.5862 14.4837C15.8997 14.324 16.1553 14.0687 16.315 13.7552C16.4967 13.3988 16.4967 12.9322 16.4967 11.999L16.4967 5.66709C16.4967 4.73389 16.4967 4.26729 16.315 3.91085C16.1553 3.59732 15.8999 3.3426 15.5864 3.18285C15.2299 3.00124 14.7636 3.00124 13.8304 3.00124H8.99824M1.5 3.00124H8.99824M1.5 3.00124C1.5 2.08098 2.24602 1.33496 3.16628 1.33496H6.22765C6.63521 1.33496 6.83947 1.33496 7.03124 1.381C7.20126 1.42182 7.3635 1.48931 7.51259 1.58067C7.68069 1.68368 7.82503 1.82802 8.11303 2.11603L8.99824 3.00124" stroke="white" stroke-width="1.49961" stroke-linecap="round" stroke-linejoin="round"/>
</svg>
