<svg width="24" height="24" viewBox="0 0 24 24" fill="none" xmlns="http://www.w3.org/2000/svg">
<path opacity="0.7" d="M12.2219 5.97716C13.6435 5.95331 15.0171 6.49084 16.0449 7.47316L18.9129 4.60516C17.1029 2.90494 14.705 1.97137 12.2219 2.00016C10.3678 1.99939 8.55002 2.51431 6.97177 3.48736C5.39352 4.46042 4.117 5.85325 3.28491 7.51016L6.62591 10.1002C7.01014 8.91391 7.75676 7.87805 8.76063 7.13842C9.76451 6.39878 10.9751 5.99264 12.2219 5.97716Z" fill="#727272"/>
<path d="M3.28506 7.50977C2.58597 8.90326 2.22192 10.4407 2.22192 11.9998C2.22192 13.5588 2.58597 15.0963 3.28506 16.4898L6.62606 13.8998C6.20796 12.6676 6.20796 11.3319 6.62606 10.0998L3.28506 7.50977Z" fill="#727272"/>
<path opacity="0.5" d="M15.6079 17.0679C14.8347 17.5642 13.9585 17.8773 13.0459 17.9835C12.1333 18.0896 11.2086 17.986 10.3422 17.6804C9.47577 17.3748 8.6906 16.8754 8.04655 16.2202C7.40251 15.565 6.9166 14.7714 6.62589 13.8999L3.28589 16.4899C4.11782 18.1465 5.39403 19.5391 6.97189 20.5122C8.54976 21.4852 10.3671 22.0003 12.2209 21.9999C14.6552 22.0658 17.0226 21.199 18.8389 19.5769L15.6079 17.0679Z" fill="#727272"/>
<path opacity="0.25" d="M21.6399 10.1821H12.2219V14.0501H17.6039C17.4925 14.662 17.2582 15.2449 16.9151 15.7636C16.5721 16.2824 16.1274 16.7261 15.6079 17.0681L18.8399 19.5781C19.8241 18.6303 20.5982 17.4861 21.1119 16.22C21.6256 14.9538 21.8675 13.5938 21.8219 12.2281C21.8219 11.5411 21.7619 10.8571 21.6399 10.1821Z" fill="#727272"/>
</svg>
