<svg
  width="25"
  height="24"
  viewBox="0 0 48 48"
  fill="none"
  xmlns="http://www.w3.org/2000/svg"
>
  <path
    d="M24 25.5625C22.1458 25.5625 20.3332 25.0127 18.7915 23.9825C17.2498 22.9524 16.0482 21.4882 15.3386 19.7752C14.6291 18.0621 14.4434 16.1771 14.8051 14.3585C15.1669 12.54 16.0598 10.8695 17.3709 9.55838C18.682 8.24726 20.3525 7.35438 22.171 6.99264C23.9896 6.63091 25.8746 6.81656 27.5877 7.52613C29.3007 8.2357 30.7649 9.43732 31.795 10.979C32.8252 12.5207 33.375 14.3333 33.375 16.1875C33.375 18.6739 32.3873 21.0585 30.6291 22.8166C28.871 24.5748 26.4864 25.5625 24 25.5625ZM24 9.9375C22.7639 9.9375 21.5555 10.3041 20.5277 10.9908C19.4999 11.6776 18.6988 12.6537 18.2258 13.7957C17.7527 14.9378 17.6289 16.1944 17.8701 17.4068C18.1113 18.6192 18.7065 19.7328 19.5806 20.6069C20.4547 21.481 21.5683 22.0763 22.7807 22.3174C23.9931 22.5586 25.2497 22.4348 26.3918 21.9617C27.5338 21.4887 28.5099 20.6876 29.1967 19.6598C29.8834 18.632 30.25 17.4236 30.25 16.1875C30.25 14.5299 29.5915 12.9402 28.4194 11.7681C27.2473 10.596 25.6576 9.9375 24 9.9375Z"
    fill="currentColor"
  ></path>
  <path
    d="M24 47.4375C20.5351 47.4352 17.1137 46.6647 13.9824 45.1814C10.851 43.6981 8.08739 41.5389 5.89062 38.8594L5.07812 37.8594L5.89062 36.875C8.08924 34.1989 10.8536 32.0434 13.9849 30.5635C17.1162 29.0835 20.5366 28.3159 24 28.3159C27.4634 28.3159 30.8838 29.0835 34.0151 30.5635C37.1464 32.0434 39.9108 34.1989 42.1094 36.875L42.9219 37.8594L42.1094 38.8594C39.9126 41.5389 37.1491 43.6981 34.0177 45.1814C30.8863 46.6647 27.4649 47.4352 24 47.4375ZM9.17188 37.875C11.0722 39.9094 13.3705 41.5315 15.924 42.6405C18.4775 43.7494 21.2317 44.3217 24.0156 44.3217C26.7995 44.3217 29.5537 43.7494 32.1072 42.6405C34.6607 41.5315 36.959 39.9094 38.8594 37.875C36.959 35.8406 34.6607 34.2186 32.1072 33.1096C29.5537 32.0006 26.7995 31.4283 24.0156 31.4283C21.2317 31.4283 18.4775 32.0006 15.924 33.1096C13.3705 34.2186 11.0722 35.8406 9.17188 37.875Z"
    fill="currentColor"
  ></path>
  <path
    d="M24 47.4375C18.6762 47.441 13.5098 45.632 9.35109 42.308C5.19242 38.984 2.28932 34.3433 1.11961 29.1495C-0.0501108 23.9558 0.58326 18.5186 2.91548 13.7327C5.24769 8.94693 9.13977 5.09773 13.9511 2.81867C18.7625 0.539603 24.2064 -0.0335047 29.3869 1.19367C34.5673 2.42084 39.1756 5.37517 42.4533 9.5704C45.731 13.7656 47.4828 18.9518 47.4203 24.2752C47.3577 29.5987 45.4847 34.7423 42.1094 38.8594C39.9126 41.5389 37.1491 43.6981 34.0177 45.1814C30.8863 46.6646 27.4649 47.4352 24 47.4375ZM24 3.68752C19.9826 3.68752 16.0554 4.87882 12.715 7.11079C9.37463 9.34275 6.77112 12.5151 5.23372 16.2268C3.69631 19.9384 3.29406 24.0225 4.07782 27.9628C4.86158 31.903 6.79616 35.5224 9.63691 38.3631C12.4777 41.2039 16.097 43.1384 20.0372 43.9222C23.9775 44.706 28.0616 44.3037 31.7733 42.7663C35.4849 41.2289 38.6573 38.6254 40.8892 35.285C43.1212 31.9446 44.3125 28.0174 44.3125 24C44.3125 18.6128 42.1724 13.4462 38.3631 9.63691C34.5538 5.82758 29.3872 3.68752 24 3.68752Z"
    fill="currentColor"
  ></path>
  <path
    d="M24 24C28.3147 24 31.8125 20.5022 31.8125 16.1875C31.8125 11.8728 28.3147 8.375 24 8.375C19.6853 8.375 16.1875 11.8728 16.1875 16.1875C16.1875 20.5022 19.6853 24 24 24Z"
    fill="currentColor"
  ></path>
</svg>