<svg width="20" height="20" viewBox="0 0 20 20" fill="none" xmlns="http://www.w3.org/2000/svg">
<path d="M6.99746 4.24824H7.33424C7.57877 4.24824 7.70112 4.24824 7.81618 4.27586C7.91819 4.30035 8.01612 4.34085 8.10557 4.39566C8.20643 4.45747 8.29303 4.54407 8.46583 4.71687L11.5278 7.77881C11.7007 7.95171 11.7866 8.03769 11.8485 8.13858C11.9033 8.22803 11.9443 8.32581 11.9688 8.42782C11.9962 8.5417 11.9962 8.66262 11.9962 8.90218V16.2451M6.99746 4.24824H2.59822C2.03831 4.24824 1.75864 4.24824 1.54478 4.35721C1.35667 4.45305 1.20384 4.60588 1.10799 4.794C0.999023 5.00785 0.999023 5.28802 0.999023 5.84792V17.6448C0.999023 18.2048 0.999023 18.4843 1.10799 18.6982C1.20384 18.8863 1.35667 19.0396 1.54478 19.1355C1.75843 19.2443 2.03777 19.2443 2.5966 19.2443L10.3976 19.2443C10.9564 19.2443 11.2368 19.2443 11.4505 19.1355C11.6386 19.0396 11.791 18.8865 11.8868 18.6984C11.9958 18.4846 11.9962 18.2045 11.9962 17.6446V16.2451M6.99746 4.24824V7.64735C6.99746 8.20726 6.99746 8.48702 7.10642 8.70088C7.20227 8.88899 7.3551 9.04223 7.54322 9.13808C7.75686 9.24694 8.0362 9.24694 8.59501 9.24694H11.9958M7.9972 4.24834V2.8487C7.9972 2.2888 7.9972 2.00864 8.10616 1.79478C8.20201 1.60667 8.35484 1.45384 8.54296 1.35799C8.75681 1.24902 9.03648 1.24902 9.59639 1.24902H13.9956M13.9956 1.24902H14.3324C14.5769 1.24902 14.6993 1.24902 14.8144 1.27665C14.9164 1.30114 15.0143 1.34163 15.1037 1.39645C15.2046 1.45825 15.2912 1.54486 15.464 1.71765L18.5259 4.77959C18.6989 4.9525 18.7848 5.03847 18.8466 5.13936C18.9015 5.22881 18.9425 5.32659 18.967 5.4286C18.9943 5.54248 18.9943 5.66339 18.9943 5.90296V14.6454C18.9943 15.2053 18.994 15.4853 18.885 15.6992C18.7891 15.8873 18.6374 16.0404 18.4492 16.1363C18.2356 16.2451 17.9556 16.2451 17.3968 16.2451H11.9962M13.9956 1.24902V4.64814C13.9956 5.20804 13.9956 5.4878 14.1046 5.70166C14.2004 5.88977 14.3533 6.04301 14.5414 6.13886C14.755 6.24772 15.0344 6.24772 15.5932 6.24772H18.9939" stroke="currentColor" stroke-width="1.49961" stroke-linecap="round" stroke-linejoin="round"/>
</svg>
